<svg width="36" height="36" viewBox="0 0 36 36" fill="currentColor" xmlns="http://www.w3.org/2000/svg">
<path d="M35.9872 35.1034L33.0263 10.0423C32.977 9.63885 32.5822 9.32503 32.1381 9.32503H26.6605V7.80075C26.6605 3.49689 22.8114 0 18.074 0C13.3367 0 9.48756 3.49689 9.48756 7.80075V9.32503H3.86194C3.41781 9.32503 3.02303 9.63885 2.97369 10.0423L0.0128368 35.1034C-0.0365107 35.3275 0.0621842 35.5517 0.210227 35.731C0.358269 35.9103 0.605007 36 0.851744 36H35.1483C35.395 36 35.6417 35.9103 35.7898 35.731C35.9378 35.5517 36.0365 35.3275 35.9872 35.1034ZM25.7722 13.8531C26.2164 13.8531 26.5618 14.1669 26.5618 14.5704C26.5618 14.9738 26.2164 15.2877 25.7722 15.2877C25.3281 15.2877 24.9827 14.9738 24.9827 14.5704C24.9827 14.1669 25.3281 13.8531 25.7722 13.8531ZM11.2641 7.80075C11.2641 4.39352 14.3236 1.61395 18.074 1.61395C21.8244 1.61395 24.884 4.39352 24.884 7.80075V9.32503H11.2641V7.80075ZM10.3758 13.8531C10.8199 13.8531 11.1654 14.1669 11.1654 14.5704C11.1654 14.9738 10.8199 15.2877 10.3758 15.2877C9.93168 15.2877 9.58625 14.9738 9.58625 14.5704C9.58625 14.1669 9.93168 13.8531 10.3758 13.8531ZM1.88804 34.3412L4.6515 10.8941H9.48756V12.3736C8.50061 12.6874 7.80974 13.5392 7.80974 14.5255C7.80974 15.7808 8.94473 16.812 10.3265 16.812C11.7082 16.812 12.8432 15.7808 12.8432 14.5255C12.8432 13.5392 12.1523 12.6874 11.1654 12.3736V10.8941H24.7853V12.3736C23.7983 12.6874 23.1075 13.5392 23.1075 14.5255C23.1075 15.7808 24.2425 16.812 25.6242 16.812C27.0059 16.812 28.1409 15.7808 28.1409 14.5255C28.1409 13.5392 27.45 12.6874 26.4631 12.3736V10.8941H31.4965L34.26 34.3412H1.88804Z" />
</svg>
