<svg width="24" height="24" viewBox="0 0 24 24" fill="currentColor" xmlns="http://www.w3.org/2000/svg">
<path d="M3.01809 3.01801C1.07184 4.96427 0 7.55192 0 10.3043C0 13.0567 1.07184 15.6443 3.01809 17.5905C4.9643 19.5367 7.55194 20.6086 10.3043 20.6086C12.8206 20.6086 15.199 19.7122 17.0757 18.0712L22.7984 23.7938C23.0733 24.0687 23.5189 24.0687 23.7938 23.7938C23.9312 23.6564 24 23.4763 24 23.2962C24 23.1161 23.9313 22.9359 23.7938 22.7985L18.0712 17.0758C19.7121 15.199 20.6086 12.8207 20.6086 10.3043C20.6086 7.55187 19.5367 4.96432 17.5905 3.01806C15.6443 1.07185 13.0567 1.43051e-06 10.3043 1.43051e-06C7.55194 1.43051e-06 4.9643 1.0718 3.01809 3.01801ZM16.5951 4.01345C20.0639 7.48226 20.0639 13.1263 16.5951 16.5951C13.1264 20.0638 7.48228 20.0638 4.01353 16.5951C2.27897 14.8605 1.41197 12.5828 1.41197 10.3042C1.41197 8.0263 2.27939 5.7476 4.01353 4.01341C7.48223 0.544736 13.1263 0.544736 16.5951 4.01345Z" />
</svg>
