<svg width="22" height="20" viewBox="0 0 22 20" fill="currentColor" xmlns="http://www.w3.org/2000/svg">
<path d="M20.1818 0.246815C19.921 0.265792 19.665 0.326984 19.4238 0.428003H19.4205C19.1889 0.519815 18.088 0.98294 16.4143 1.68494L10.4164 4.211C6.11257 6.02288 1.88188 7.80713 1.88188 7.80713L1.93226 7.78763C1.93226 7.78763 1.64057 7.8835 1.33588 8.09232C1.14765 8.2121 0.985672 8.36882 0.859756 8.553C0.710256 8.77238 0.590006 9.10794 0.634694 9.45488C0.707819 10.0415 1.08807 10.3933 1.36107 10.5875C1.63732 10.7841 1.90057 10.8759 1.90057 10.8759H1.90707L5.87451 12.2125C6.05244 12.7837 7.0835 16.1734 7.33132 16.9543C7.47757 17.4206 7.61975 17.7123 7.79769 17.9349C7.88382 18.0487 7.98457 18.1438 8.10563 18.2201C8.16857 18.2567 8.23567 18.2857 8.3055 18.3063L8.26488 18.2965C8.27707 18.2998 8.28682 18.3095 8.29575 18.3128C8.32825 18.3217 8.35019 18.3249 8.39163 18.3314C9.01969 18.5216 9.52425 18.1316 9.52425 18.1316L9.55269 18.1088L11.8951 15.976L15.8211 18.9879L15.9105 19.0261C16.7287 19.3853 17.5574 19.1854 17.9954 18.8328C18.4366 18.4777 18.608 18.0235 18.608 18.0235L18.6364 17.9504L21.6703 2.40807C21.7564 2.02457 21.7784 1.66544 21.6833 1.31688C21.5853 0.964111 21.3589 0.660709 21.0488 0.46619C20.7883 0.307846 20.4862 0.231417 20.1818 0.246815ZM20.0998 1.91244C20.0965 1.96363 20.1063 1.95794 20.0835 2.05625V2.06519L17.0781 17.4458C17.0651 17.4678 17.0431 17.5157 16.983 17.5636C16.9196 17.614 16.8693 17.6457 16.6052 17.5409L11.8033 13.8594L8.90269 16.5033L9.51207 12.6114L17.3576 5.29894C17.6809 4.99832 17.5729 4.93494 17.5729 4.93494C17.5956 4.56607 17.0846 4.82688 17.0846 4.82688L7.19157 10.9556L7.18832 10.9393L2.44657 9.34275V9.3395L2.43438 9.33707C2.44269 9.33431 2.45083 9.33105 2.45876 9.32732L2.48476 9.31432L2.50994 9.30538C2.50994 9.30538 6.74388 7.52113 11.0477 5.70925C13.2024 4.80169 15.3734 3.88763 17.0431 3.18238C18.7128 2.48119 19.947 1.96688 20.0169 1.93925C20.0835 1.91325 20.0518 1.91325 20.0998 1.91325V1.91244Z" />
</svg>
