<svg width="26" height="26" viewBox="0 0 26 26" fill="currentColor" xmlns="http://www.w3.org/2000/svg">
<path d="M18.1166 15.2318C17.8398 15.0896 16.4611 14.4143 16.2047 14.3229C15.9482 14.2264 15.7603 14.1807 15.575 14.465C15.3871 14.7469 14.8539 15.374 14.6863 15.5645C14.5238 15.7523 14.3588 15.7752 14.082 15.6355C12.4367 14.8129 11.3576 14.168 10.2734 12.3068C9.98652 11.8117 10.5603 11.8473 11.0961 10.7783C11.1875 10.5904 11.1418 10.4305 11.0707 10.2883C10.9996 10.1461 10.441 8.76992 10.2074 8.20879C9.98144 7.66289 9.74785 7.73906 9.57773 7.72891C9.41523 7.71875 9.22988 7.71875 9.04199 7.71875C8.8541 7.71875 8.55195 7.78984 8.29551 8.0666C8.03906 8.34844 7.31543 9.02637 7.31543 10.4025C7.31543 11.7787 8.31836 13.1117 8.45547 13.2996C8.59766 13.4875 10.4283 16.3109 13.2391 17.5271C15.0164 18.2939 15.7121 18.36 16.6008 18.2279C17.1416 18.1467 18.2562 17.5525 18.4873 16.8949C18.7184 16.2398 18.7184 15.6787 18.6498 15.5619C18.5812 15.4375 18.3934 15.3664 18.1166 15.2318Z" />
<path d="M23.4915 8.59219C22.9177 7.22871 22.0951 6.00488 21.0464 4.95371C19.9978 3.90508 18.774 3.07988 17.408 2.50859C16.0115 1.92207 14.5287 1.625 13.0001 1.625H12.9494C11.4107 1.63262 9.92026 1.9373 8.5187 2.53652C7.16538 3.11543 5.95171 3.93809 4.91323 4.98672C3.87475 6.03535 3.05971 7.2541 2.49604 8.6125C1.91206 10.0191 1.61753 11.5146 1.62514 13.0533C1.63276 14.8154 2.05425 16.5648 2.84389 18.1289V21.9883C2.84389 22.6332 3.36694 23.1562 4.01186 23.1562H7.87378C9.43784 23.9459 11.1873 24.3674 12.9494 24.375H13.0027C14.5236 24.375 15.9988 24.0805 17.3876 23.5041C18.746 22.9379 19.9673 22.1254 21.0134 21.0869C22.0621 20.0484 22.8873 18.8348 23.4636 17.4814C24.0628 16.0799 24.3675 14.5895 24.3751 13.0508C24.3828 11.5045 24.0832 10.0039 23.4915 8.59219ZM19.655 19.7133C17.8751 21.4754 15.5138 22.4453 13.0001 22.4453H12.957C11.4259 22.4377 9.90503 22.0568 8.56186 21.3408L8.34858 21.2266H4.77358V17.6516L4.65932 17.4383C3.94331 16.0951 3.56245 14.5742 3.55483 13.0432C3.54468 10.5117 4.51206 8.13516 6.28686 6.34512C8.05913 4.55508 10.4281 3.56484 12.9595 3.55469H13.0027C14.2722 3.55469 15.5037 3.80098 16.664 4.28848C17.7964 4.76328 18.8121 5.44629 19.6855 6.31973C20.5564 7.19062 21.2419 8.20879 21.7167 9.34121C22.2093 10.5143 22.4556 11.7584 22.4505 13.0432C22.4353 15.5721 21.4425 17.941 19.655 19.7133Z" />
</svg>
