<svg width="24" height="18" viewBox="0 0 24 18" fill="currentColor" xmlns="http://www.w3.org/2000/svg">
<path d="M23.375 8.92905C23.375 8.87319 23.375 8.80971 23.3725 8.73608C23.3699 8.53042 23.3648 8.29936 23.3598 8.05307C23.3395 7.34468 23.3039 6.63882 23.248 5.97358C23.1719 5.05698 23.0602 4.29272 22.9078 3.7189C22.747 3.12006 22.4319 2.5739 21.9939 2.13502C21.5559 1.69614 21.0104 1.3799 20.4119 1.21792C19.6934 1.02495 18.2867 0.905615 16.3062 0.831982C15.3643 0.796435 14.3562 0.773584 13.3482 0.760889C12.9953 0.75581 12.6678 0.753271 12.3732 0.750732H11.6268C11.3322 0.753271 11.0047 0.75581 10.6518 0.760889C9.64375 0.773584 8.63574 0.796435 7.69375 0.831982C5.71328 0.908154 4.3041 1.02749 3.58809 1.21792C2.98938 1.3795 2.44365 1.69561 2.0056 2.13455C1.56755 2.57349 1.25255 3.11986 1.09219 3.7189C0.937305 4.29272 0.828125 5.05698 0.751953 5.97358C0.696094 6.63882 0.660547 7.34468 0.640234 8.05307C0.632617 8.29936 0.630078 8.53042 0.627539 8.73608C0.627539 8.80971 0.625 8.87319 0.625 8.92905V9.07124C0.625 9.1271 0.625 9.19057 0.627539 9.26421C0.630078 9.46987 0.635156 9.70092 0.640234 9.94721C0.660547 10.6556 0.696094 11.3615 0.751953 12.0267C0.828125 12.9433 0.939844 13.7076 1.09219 14.2814C1.41719 15.4976 2.37187 16.4574 3.58809 16.7824C4.3041 16.9753 5.71328 17.0947 7.69375 17.1683C8.63574 17.2039 9.64375 17.2267 10.6518 17.2394C11.0047 17.2445 11.3322 17.247 11.6268 17.2496H12.3732C12.6678 17.247 12.9953 17.2445 13.3482 17.2394C14.3562 17.2267 15.3643 17.2039 16.3062 17.1683C18.2867 17.0921 19.6959 16.9728 20.4119 16.7824C21.6281 16.4574 22.5828 15.5001 22.9078 14.2814C23.0627 13.7076 23.1719 12.9433 23.248 12.0267C23.3039 11.3615 23.3395 10.6556 23.3598 9.94721C23.3674 9.70092 23.3699 9.46987 23.3725 9.26421C23.3725 9.19057 23.375 9.1271 23.375 9.07124V8.92905ZM21.5469 9.06108C21.5469 9.1144 21.5469 9.1728 21.5443 9.24135C21.5418 9.4394 21.5367 9.65776 21.5316 9.89389C21.5139 10.5693 21.4783 11.2447 21.425 11.8718C21.3564 12.6894 21.26 13.3597 21.1406 13.8091C20.9832 14.3957 20.5211 14.8603 19.9371 15.0152C19.4039 15.1574 18.0607 15.2716 16.2352 15.3402C15.3109 15.3757 14.3156 15.3986 13.3229 15.4113C12.975 15.4164 12.6525 15.4189 12.3631 15.4189H11.6369L10.6771 15.4113C9.68437 15.3986 8.6916 15.3757 7.76484 15.3402C5.93926 15.2691 4.59355 15.1574 4.06289 15.0152C3.47891 14.8578 3.0168 14.3957 2.85938 13.8091C2.74004 13.3597 2.64355 12.6894 2.575 11.8718C2.52168 11.2447 2.48867 10.5693 2.46836 9.89389C2.46074 9.65776 2.4582 9.43686 2.45566 9.24135C2.45566 9.1728 2.45312 9.11186 2.45312 9.06108V8.93921C2.45312 8.88589 2.45313 8.82749 2.45566 8.75893C2.4582 8.56089 2.46328 8.34253 2.46836 8.10639C2.48613 7.431 2.52168 6.75561 2.575 6.12846C2.64355 5.31089 2.74004 4.64057 2.85938 4.19116C3.0168 3.60464 3.47891 3.13999 4.06289 2.98511C4.59609 2.84292 5.93926 2.72866 7.76484 2.66011C8.68906 2.62456 9.68437 2.60171 10.6771 2.58901C11.025 2.58393 11.3475 2.5814 11.6369 2.5814H12.3631L13.3229 2.58901C14.3156 2.60171 15.3084 2.62456 16.2352 2.66011C18.0607 2.7312 19.4064 2.84292 19.9371 2.98511C20.5211 3.14253 20.9832 3.60464 21.1406 4.19116C21.26 4.64057 21.3564 5.31089 21.425 6.12846C21.4783 6.75561 21.5113 7.431 21.5316 8.10639C21.5393 8.34253 21.5418 8.56343 21.5443 8.75893C21.5443 8.82749 21.5469 8.88842 21.5469 8.93921V9.06108ZM9.74023 12.4025L15.6309 8.97475L9.74023 5.5978V12.4025Z" />
</svg>
